<mxfile host="Electron" modified="2024-01-05T16:09:13.806Z" agent="Mozilla/5.0 (Windows NT 10.0; Win64; x64) AppleWebKit/537.36 (KHTML, like Gecko) draw.io/21.3.7 Chrome/112.0.5615.204 Electron/24.5.0 Safari/537.36" etag="xNNrsWM3hYa_OIc6cGVv" version="21.3.7" type="device">
  <diagram name="Page-1" id="z8xUOe1I0Qigg-I1S1hj">
    <mxGraphModel dx="2284" dy="836" grid="1" gridSize="10" guides="1" tooltips="1" connect="1" arrows="1" fold="1" page="1" pageScale="1" pageWidth="850" pageHeight="1100" math="0" shadow="0">
      <root>
        <mxCell id="0" />
        <mxCell id="1" parent="0" />
        <mxCell id="7VTzl1JpRAjX33c_y854-3" value="" style="rounded=0;whiteSpace=wrap;html=1;" vertex="1" parent="1">
          <mxGeometry x="210" y="280" width="150" height="120" as="geometry" />
        </mxCell>
        <mxCell id="7VTzl1JpRAjX33c_y854-1" value="&lt;b&gt;PROMPT 1&lt;/b&gt;" style="rounded=0;whiteSpace=wrap;html=1;" vertex="1" parent="1">
          <mxGeometry x="138" y="460" width="110" height="20" as="geometry" />
        </mxCell>
        <mxCell id="7VTzl1JpRAjX33c_y854-2" value="&lt;b&gt;PROMPT 2&lt;/b&gt;" style="rounded=0;whiteSpace=wrap;html=1;" vertex="1" parent="1">
          <mxGeometry x="222.5" y="360" width="127.5" height="30" as="geometry" />
        </mxCell>
        <mxCell id="7VTzl1JpRAjX33c_y854-5" value="&lt;b&gt;&lt;font style=&quot;font-size: 14px;&quot;&gt;PROMPTS LIST&lt;/font&gt;&lt;/b&gt;" style="text;html=1;strokeColor=none;fillColor=none;align=center;verticalAlign=middle;whiteSpace=wrap;rounded=0;" vertex="1" parent="1">
          <mxGeometry x="221.25" y="280" width="121.25" height="30" as="geometry" />
        </mxCell>
        <mxCell id="7VTzl1JpRAjX33c_y854-13" style="edgeStyle=orthogonalEdgeStyle;rounded=0;orthogonalLoop=1;jettySize=auto;html=1;exitX=1;exitY=0.5;exitDx=0;exitDy=0;entryX=0;entryY=0;entryDx=0;entryDy=10;entryPerimeter=0;" edge="1" parent="1" source="7VTzl1JpRAjX33c_y854-6" target="7VTzl1JpRAjX33c_y854-10">
          <mxGeometry relative="1" as="geometry" />
        </mxCell>
        <mxCell id="7VTzl1JpRAjX33c_y854-14" style="edgeStyle=orthogonalEdgeStyle;rounded=0;orthogonalLoop=1;jettySize=auto;html=1;exitX=1;exitY=0.5;exitDx=0;exitDy=0;entryX=0;entryY=0;entryDx=0;entryDy=10;entryPerimeter=0;" edge="1" parent="1" source="7VTzl1JpRAjX33c_y854-6" target="7VTzl1JpRAjX33c_y854-11">
          <mxGeometry relative="1" as="geometry" />
        </mxCell>
        <mxCell id="7VTzl1JpRAjX33c_y854-6" value="Thread 1" style="rounded=1;whiteSpace=wrap;html=1;" vertex="1" parent="1">
          <mxGeometry x="-32" y="470" width="120" height="30" as="geometry" />
        </mxCell>
        <mxCell id="7VTzl1JpRAjX33c_y854-17" style="edgeStyle=orthogonalEdgeStyle;rounded=0;orthogonalLoop=1;jettySize=auto;html=1;exitX=1;exitY=0.5;exitDx=0;exitDy=0;entryX=0;entryY=0;entryDx=0;entryDy=10;entryPerimeter=0;" edge="1" parent="1" source="7VTzl1JpRAjX33c_y854-7" target="7VTzl1JpRAjX33c_y854-15">
          <mxGeometry relative="1" as="geometry" />
        </mxCell>
        <mxCell id="7VTzl1JpRAjX33c_y854-18" style="edgeStyle=orthogonalEdgeStyle;rounded=0;orthogonalLoop=1;jettySize=auto;html=1;exitX=1;exitY=0.5;exitDx=0;exitDy=0;entryX=0;entryY=0;entryDx=0;entryDy=10;entryPerimeter=0;" edge="1" parent="1" source="7VTzl1JpRAjX33c_y854-7" target="7VTzl1JpRAjX33c_y854-16">
          <mxGeometry relative="1" as="geometry" />
        </mxCell>
        <mxCell id="7VTzl1JpRAjX33c_y854-7" value="Thread 2" style="rounded=1;whiteSpace=wrap;html=1;" vertex="1" parent="1">
          <mxGeometry x="-32" y="600" width="120" height="30" as="geometry" />
        </mxCell>
        <mxCell id="7VTzl1JpRAjX33c_y854-10" value="Task 1" style="shape=cube;whiteSpace=wrap;html=1;boundedLbl=1;backgroundOutline=1;darkOpacity=0.05;darkOpacity2=0.1;size=10;" vertex="1" parent="1">
          <mxGeometry x="128" y="420" width="120" height="30" as="geometry" />
        </mxCell>
        <mxCell id="7VTzl1JpRAjX33c_y854-11" value="Task 2" style="shape=cube;whiteSpace=wrap;html=1;boundedLbl=1;backgroundOutline=1;darkOpacity=0.05;darkOpacity2=0.1;size=10;" vertex="1" parent="1">
          <mxGeometry x="128" y="500" width="120" height="30" as="geometry" />
        </mxCell>
        <mxCell id="7VTzl1JpRAjX33c_y854-15" value="Task 1" style="shape=cube;whiteSpace=wrap;html=1;boundedLbl=1;backgroundOutline=1;darkOpacity=0.05;darkOpacity2=0.1;size=10;" vertex="1" parent="1">
          <mxGeometry x="128" y="580" width="120" height="30" as="geometry" />
        </mxCell>
        <mxCell id="7VTzl1JpRAjX33c_y854-16" value="Task 2" style="shape=cube;whiteSpace=wrap;html=1;boundedLbl=1;backgroundOutline=1;darkOpacity=0.05;darkOpacity2=0.1;size=10;" vertex="1" parent="1">
          <mxGeometry x="128" y="650" width="120" height="30" as="geometry" />
        </mxCell>
        <mxCell id="7VTzl1JpRAjX33c_y854-25" value="&lt;b&gt;PROMPT 2&lt;/b&gt;" style="rounded=0;whiteSpace=wrap;html=1;" vertex="1" parent="1">
          <mxGeometry x="138" y="540" width="110" height="20" as="geometry" />
        </mxCell>
        <mxCell id="7VTzl1JpRAjX33c_y854-26" value="&lt;b&gt;PROMPT 1&lt;/b&gt;" style="rounded=0;whiteSpace=wrap;html=1;" vertex="1" parent="1">
          <mxGeometry x="138" y="620" width="110" height="20" as="geometry" />
        </mxCell>
        <mxCell id="7VTzl1JpRAjX33c_y854-27" value="&lt;b&gt;PROMPT 2&lt;/b&gt;" style="rounded=0;whiteSpace=wrap;html=1;" vertex="1" parent="1">
          <mxGeometry x="138" y="690" width="110" height="20" as="geometry" />
        </mxCell>
        <mxCell id="7VTzl1JpRAjX33c_y854-28" style="edgeStyle=orthogonalEdgeStyle;rounded=0;orthogonalLoop=1;jettySize=auto;html=1;exitX=1;exitY=0.5;exitDx=0;exitDy=0;entryX=0;entryY=0;entryDx=0;entryDy=10;entryPerimeter=0;" edge="1" parent="1" source="7VTzl1JpRAjX33c_y854-30" target="7VTzl1JpRAjX33c_y854-31">
          <mxGeometry relative="1" as="geometry" />
        </mxCell>
        <mxCell id="7VTzl1JpRAjX33c_y854-29" style="edgeStyle=orthogonalEdgeStyle;rounded=0;orthogonalLoop=1;jettySize=auto;html=1;exitX=1;exitY=0.5;exitDx=0;exitDy=0;entryX=0;entryY=0;entryDx=0;entryDy=10;entryPerimeter=0;" edge="1" parent="1" source="7VTzl1JpRAjX33c_y854-30" target="7VTzl1JpRAjX33c_y854-32">
          <mxGeometry relative="1" as="geometry" />
        </mxCell>
        <mxCell id="7VTzl1JpRAjX33c_y854-30" value="Thread 3" style="rounded=1;whiteSpace=wrap;html=1;" vertex="1" parent="1">
          <mxGeometry x="-32" y="748" width="120" height="30" as="geometry" />
        </mxCell>
        <mxCell id="7VTzl1JpRAjX33c_y854-31" value="Task 1" style="shape=cube;whiteSpace=wrap;html=1;boundedLbl=1;backgroundOutline=1;darkOpacity=0.05;darkOpacity2=0.1;size=10;" vertex="1" parent="1">
          <mxGeometry x="128" y="728" width="120" height="30" as="geometry" />
        </mxCell>
        <mxCell id="7VTzl1JpRAjX33c_y854-32" value="Task 2" style="shape=cube;whiteSpace=wrap;html=1;boundedLbl=1;backgroundOutline=1;darkOpacity=0.05;darkOpacity2=0.1;size=10;" vertex="1" parent="1">
          <mxGeometry x="128" y="798" width="120" height="30" as="geometry" />
        </mxCell>
        <mxCell id="7VTzl1JpRAjX33c_y854-33" value="&lt;b&gt;PROMPT 1&lt;/b&gt;" style="rounded=0;whiteSpace=wrap;html=1;" vertex="1" parent="1">
          <mxGeometry x="138" y="768" width="110" height="20" as="geometry" />
        </mxCell>
        <mxCell id="7VTzl1JpRAjX33c_y854-34" value="&lt;b&gt;PROMPT 2&lt;/b&gt;" style="rounded=0;whiteSpace=wrap;html=1;" vertex="1" parent="1">
          <mxGeometry x="138" y="838" width="110" height="20" as="geometry" />
        </mxCell>
        <mxCell id="7VTzl1JpRAjX33c_y854-35" value="&lt;b&gt;PROMPT 1&lt;/b&gt;" style="rounded=0;whiteSpace=wrap;html=1;" vertex="1" parent="1">
          <mxGeometry x="221.25" y="320" width="128.75" height="30" as="geometry" />
        </mxCell>
        <mxCell id="7VTzl1JpRAjX33c_y854-62" style="edgeStyle=orthogonalEdgeStyle;rounded=0;orthogonalLoop=1;jettySize=auto;html=1;exitX=0.8;exitY=0.8;exitDx=0;exitDy=0;exitPerimeter=0;entryX=0;entryY=0.5;entryDx=0;entryDy=0;" edge="1" parent="1" source="7VTzl1JpRAjX33c_y854-36" target="7VTzl1JpRAjX33c_y854-56">
          <mxGeometry relative="1" as="geometry" />
        </mxCell>
        <mxCell id="7VTzl1JpRAjX33c_y854-63" style="edgeStyle=orthogonalEdgeStyle;rounded=0;orthogonalLoop=1;jettySize=auto;html=1;exitX=0.8;exitY=0.8;exitDx=0;exitDy=0;exitPerimeter=0;entryX=0;entryY=0.5;entryDx=0;entryDy=0;" edge="1" parent="1" source="7VTzl1JpRAjX33c_y854-36" target="7VTzl1JpRAjX33c_y854-57">
          <mxGeometry relative="1" as="geometry" />
        </mxCell>
        <mxCell id="7VTzl1JpRAjX33c_y854-64" style="edgeStyle=orthogonalEdgeStyle;rounded=0;orthogonalLoop=1;jettySize=auto;html=1;exitX=0.8;exitY=0.8;exitDx=0;exitDy=0;exitPerimeter=0;entryX=0;entryY=0.5;entryDx=0;entryDy=0;" edge="1" parent="1" source="7VTzl1JpRAjX33c_y854-36" target="7VTzl1JpRAjX33c_y854-58">
          <mxGeometry relative="1" as="geometry" />
        </mxCell>
        <mxCell id="7VTzl1JpRAjX33c_y854-65" style="edgeStyle=orthogonalEdgeStyle;rounded=0;orthogonalLoop=1;jettySize=auto;html=1;exitX=0.8;exitY=0.8;exitDx=0;exitDy=0;exitPerimeter=0;entryX=0;entryY=0.5;entryDx=0;entryDy=0;" edge="1" parent="1" source="7VTzl1JpRAjX33c_y854-36" target="7VTzl1JpRAjX33c_y854-59">
          <mxGeometry relative="1" as="geometry" />
        </mxCell>
        <mxCell id="7VTzl1JpRAjX33c_y854-66" style="edgeStyle=orthogonalEdgeStyle;rounded=0;orthogonalLoop=1;jettySize=auto;html=1;exitX=0.8;exitY=0.8;exitDx=0;exitDy=0;exitPerimeter=0;entryX=0;entryY=0.5;entryDx=0;entryDy=0;" edge="1" parent="1" source="7VTzl1JpRAjX33c_y854-36" target="7VTzl1JpRAjX33c_y854-60">
          <mxGeometry relative="1" as="geometry" />
        </mxCell>
        <mxCell id="7VTzl1JpRAjX33c_y854-67" style="edgeStyle=orthogonalEdgeStyle;rounded=0;orthogonalLoop=1;jettySize=auto;html=1;exitX=0.8;exitY=0.8;exitDx=0;exitDy=0;exitPerimeter=0;entryX=0;entryY=0.5;entryDx=0;entryDy=0;" edge="1" parent="1" source="7VTzl1JpRAjX33c_y854-36" target="7VTzl1JpRAjX33c_y854-61">
          <mxGeometry relative="1" as="geometry" />
        </mxCell>
        <mxCell id="7VTzl1JpRAjX33c_y854-36" value="&lt;b&gt;CHAT GPT API&lt;/b&gt;" style="ellipse;shape=cloud;whiteSpace=wrap;html=1;" vertex="1" parent="1">
          <mxGeometry x="374" y="250" width="240" height="135" as="geometry" />
        </mxCell>
        <mxCell id="7VTzl1JpRAjX33c_y854-37" value="" style="shape=flexArrow;endArrow=classic;html=1;rounded=0;" edge="1" parent="1">
          <mxGeometry width="50" height="50" relative="1" as="geometry">
            <mxPoint x="258" y="450" as="sourcePoint" />
            <mxPoint x="328" y="450" as="targetPoint" />
          </mxGeometry>
        </mxCell>
        <mxCell id="7VTzl1JpRAjX33c_y854-38" value="" style="shape=flexArrow;endArrow=classic;html=1;rounded=0;" edge="1" parent="1">
          <mxGeometry width="50" height="50" relative="1" as="geometry">
            <mxPoint x="258" y="530" as="sourcePoint" />
            <mxPoint x="328" y="530" as="targetPoint" />
          </mxGeometry>
        </mxCell>
        <mxCell id="7VTzl1JpRAjX33c_y854-40" value="" style="shape=flexArrow;endArrow=classic;html=1;rounded=0;" edge="1" parent="1">
          <mxGeometry width="50" height="50" relative="1" as="geometry">
            <mxPoint x="258" y="609.31" as="sourcePoint" />
            <mxPoint x="328" y="609.31" as="targetPoint" />
          </mxGeometry>
        </mxCell>
        <mxCell id="7VTzl1JpRAjX33c_y854-41" value="" style="shape=flexArrow;endArrow=classic;html=1;rounded=0;" edge="1" parent="1">
          <mxGeometry width="50" height="50" relative="1" as="geometry">
            <mxPoint x="258" y="689.31" as="sourcePoint" />
            <mxPoint x="328" y="689.31" as="targetPoint" />
          </mxGeometry>
        </mxCell>
        <mxCell id="7VTzl1JpRAjX33c_y854-42" value="" style="shape=flexArrow;endArrow=classic;html=1;rounded=0;" edge="1" parent="1">
          <mxGeometry width="50" height="50" relative="1" as="geometry">
            <mxPoint x="258" y="757.31" as="sourcePoint" />
            <mxPoint x="328" y="757.31" as="targetPoint" />
          </mxGeometry>
        </mxCell>
        <mxCell id="7VTzl1JpRAjX33c_y854-43" value="" style="shape=flexArrow;endArrow=classic;html=1;rounded=0;" edge="1" parent="1">
          <mxGeometry width="50" height="50" relative="1" as="geometry">
            <mxPoint x="258" y="837.31" as="sourcePoint" />
            <mxPoint x="328" y="837.31" as="targetPoint" />
          </mxGeometry>
        </mxCell>
        <mxCell id="7VTzl1JpRAjX33c_y854-50" style="edgeStyle=orthogonalEdgeStyle;rounded=0;orthogonalLoop=1;jettySize=auto;html=1;exitX=1;exitY=0.5;exitDx=0;exitDy=0;entryX=0.31;entryY=0.8;entryDx=0;entryDy=0;entryPerimeter=0;" edge="1" parent="1" source="7VTzl1JpRAjX33c_y854-44" target="7VTzl1JpRAjX33c_y854-36">
          <mxGeometry relative="1" as="geometry" />
        </mxCell>
        <mxCell id="7VTzl1JpRAjX33c_y854-44" value="Request" style="rounded=0;whiteSpace=wrap;html=1;" vertex="1" parent="1">
          <mxGeometry x="338" y="420" width="66" height="60" as="geometry" />
        </mxCell>
        <mxCell id="7VTzl1JpRAjX33c_y854-51" style="edgeStyle=orthogonalEdgeStyle;rounded=0;orthogonalLoop=1;jettySize=auto;html=1;exitX=1;exitY=0.5;exitDx=0;exitDy=0;entryX=0.31;entryY=0.8;entryDx=0;entryDy=0;entryPerimeter=0;" edge="1" parent="1" source="7VTzl1JpRAjX33c_y854-45" target="7VTzl1JpRAjX33c_y854-36">
          <mxGeometry relative="1" as="geometry" />
        </mxCell>
        <mxCell id="7VTzl1JpRAjX33c_y854-45" value="Request" style="rounded=0;whiteSpace=wrap;html=1;" vertex="1" parent="1">
          <mxGeometry x="338" y="500" width="66" height="60" as="geometry" />
        </mxCell>
        <mxCell id="7VTzl1JpRAjX33c_y854-52" style="edgeStyle=orthogonalEdgeStyle;rounded=0;orthogonalLoop=1;jettySize=auto;html=1;exitX=1;exitY=0.5;exitDx=0;exitDy=0;entryX=0.31;entryY=0.8;entryDx=0;entryDy=0;entryPerimeter=0;" edge="1" parent="1" source="7VTzl1JpRAjX33c_y854-46" target="7VTzl1JpRAjX33c_y854-36">
          <mxGeometry relative="1" as="geometry" />
        </mxCell>
        <mxCell id="7VTzl1JpRAjX33c_y854-46" value="Request" style="rounded=0;whiteSpace=wrap;html=1;" vertex="1" parent="1">
          <mxGeometry x="338" y="580" width="66" height="60" as="geometry" />
        </mxCell>
        <mxCell id="7VTzl1JpRAjX33c_y854-53" style="edgeStyle=orthogonalEdgeStyle;rounded=0;orthogonalLoop=1;jettySize=auto;html=1;exitX=1;exitY=0.5;exitDx=0;exitDy=0;entryX=0.31;entryY=0.8;entryDx=0;entryDy=0;entryPerimeter=0;" edge="1" parent="1" source="7VTzl1JpRAjX33c_y854-47" target="7VTzl1JpRAjX33c_y854-36">
          <mxGeometry relative="1" as="geometry" />
        </mxCell>
        <mxCell id="7VTzl1JpRAjX33c_y854-47" value="&lt;span style=&quot;color: rgb(0, 0, 0); font-family: Helvetica; font-size: 12px; font-style: normal; font-variant-ligatures: normal; font-variant-caps: normal; font-weight: 400; letter-spacing: normal; orphans: 2; text-align: center; text-indent: 0px; text-transform: none; widows: 2; word-spacing: 0px; -webkit-text-stroke-width: 0px; background-color: rgb(251, 251, 251); text-decoration-thickness: initial; text-decoration-style: initial; text-decoration-color: initial; float: none; display: inline !important;&quot;&gt;Request&lt;/span&gt;" style="rounded=0;whiteSpace=wrap;html=1;" vertex="1" parent="1">
          <mxGeometry x="338" y="660" width="66" height="60" as="geometry" />
        </mxCell>
        <mxCell id="7VTzl1JpRAjX33c_y854-54" style="edgeStyle=orthogonalEdgeStyle;rounded=0;orthogonalLoop=1;jettySize=auto;html=1;exitX=1;exitY=0.5;exitDx=0;exitDy=0;entryX=0.31;entryY=0.8;entryDx=0;entryDy=0;entryPerimeter=0;" edge="1" parent="1" source="7VTzl1JpRAjX33c_y854-48" target="7VTzl1JpRAjX33c_y854-36">
          <mxGeometry relative="1" as="geometry" />
        </mxCell>
        <mxCell id="7VTzl1JpRAjX33c_y854-48" value="Request" style="rounded=0;whiteSpace=wrap;html=1;" vertex="1" parent="1">
          <mxGeometry x="338" y="733" width="66" height="60" as="geometry" />
        </mxCell>
        <mxCell id="7VTzl1JpRAjX33c_y854-55" style="edgeStyle=orthogonalEdgeStyle;rounded=0;orthogonalLoop=1;jettySize=auto;html=1;exitX=1;exitY=0.5;exitDx=0;exitDy=0;entryX=0.31;entryY=0.8;entryDx=0;entryDy=0;entryPerimeter=0;" edge="1" parent="1" source="7VTzl1JpRAjX33c_y854-49" target="7VTzl1JpRAjX33c_y854-36">
          <mxGeometry relative="1" as="geometry" />
        </mxCell>
        <mxCell id="7VTzl1JpRAjX33c_y854-49" value="Request" style="rounded=0;whiteSpace=wrap;html=1;" vertex="1" parent="1">
          <mxGeometry x="338" y="808" width="66" height="60" as="geometry" />
        </mxCell>
        <mxCell id="7VTzl1JpRAjX33c_y854-69" style="edgeStyle=orthogonalEdgeStyle;rounded=0;orthogonalLoop=1;jettySize=auto;html=1;exitX=1;exitY=0.5;exitDx=0;exitDy=0;entryX=0;entryY=0.5;entryDx=0;entryDy=0;" edge="1" parent="1" source="7VTzl1JpRAjX33c_y854-56" target="7VTzl1JpRAjX33c_y854-68">
          <mxGeometry relative="1" as="geometry" />
        </mxCell>
        <mxCell id="7VTzl1JpRAjX33c_y854-56" value="Response&lt;br&gt;Conversation 1&lt;br&gt;&lt;b&gt;&quot;Scam&quot;&lt;/b&gt;" style="rounded=0;whiteSpace=wrap;html=1;" vertex="1" parent="1">
          <mxGeometry x="588" y="420" width="90" height="60" as="geometry" />
        </mxCell>
        <mxCell id="7VTzl1JpRAjX33c_y854-70" style="edgeStyle=orthogonalEdgeStyle;rounded=0;orthogonalLoop=1;jettySize=auto;html=1;exitX=1;exitY=0.5;exitDx=0;exitDy=0;entryX=0;entryY=0.5;entryDx=0;entryDy=0;" edge="1" parent="1" source="7VTzl1JpRAjX33c_y854-57" target="7VTzl1JpRAjX33c_y854-68">
          <mxGeometry relative="1" as="geometry" />
        </mxCell>
        <mxCell id="7VTzl1JpRAjX33c_y854-57" value="Response&lt;br&gt;Conversation 2&lt;br&gt;&lt;b&gt;&quot;Legitimate&quot;&lt;/b&gt;" style="rounded=0;whiteSpace=wrap;html=1;" vertex="1" parent="1">
          <mxGeometry x="588" y="500" width="90" height="60" as="geometry" />
        </mxCell>
        <mxCell id="7VTzl1JpRAjX33c_y854-72" style="edgeStyle=orthogonalEdgeStyle;rounded=0;orthogonalLoop=1;jettySize=auto;html=1;exitX=1;exitY=0.5;exitDx=0;exitDy=0;entryX=0;entryY=0.5;entryDx=0;entryDy=0;" edge="1" parent="1" source="7VTzl1JpRAjX33c_y854-58" target="7VTzl1JpRAjX33c_y854-71">
          <mxGeometry relative="1" as="geometry" />
        </mxCell>
        <mxCell id="7VTzl1JpRAjX33c_y854-58" value="Response&lt;br&gt;Conversation 1&lt;br&gt;&lt;b&gt;&quot;Scam&quot;&lt;/b&gt;" style="rounded=0;whiteSpace=wrap;html=1;" vertex="1" parent="1">
          <mxGeometry x="588" y="580" width="90" height="60" as="geometry" />
        </mxCell>
        <mxCell id="7VTzl1JpRAjX33c_y854-73" style="edgeStyle=orthogonalEdgeStyle;rounded=0;orthogonalLoop=1;jettySize=auto;html=1;exitX=1;exitY=0.5;exitDx=0;exitDy=0;entryX=0;entryY=0.5;entryDx=0;entryDy=0;" edge="1" parent="1" source="7VTzl1JpRAjX33c_y854-59" target="7VTzl1JpRAjX33c_y854-71">
          <mxGeometry relative="1" as="geometry" />
        </mxCell>
        <mxCell id="7VTzl1JpRAjX33c_y854-59" value="Response&lt;br&gt;Conversation 2&lt;br&gt;&lt;b&gt;&quot;Legitimate&quot;&lt;/b&gt;" style="rounded=0;whiteSpace=wrap;html=1;" vertex="1" parent="1">
          <mxGeometry x="588" y="660" width="90" height="60" as="geometry" />
        </mxCell>
        <mxCell id="7VTzl1JpRAjX33c_y854-75" style="edgeStyle=orthogonalEdgeStyle;rounded=0;orthogonalLoop=1;jettySize=auto;html=1;exitX=1;exitY=0.5;exitDx=0;exitDy=0;entryX=0;entryY=0.5;entryDx=0;entryDy=0;" edge="1" parent="1" source="7VTzl1JpRAjX33c_y854-60" target="7VTzl1JpRAjX33c_y854-74">
          <mxGeometry relative="1" as="geometry" />
        </mxCell>
        <mxCell id="7VTzl1JpRAjX33c_y854-60" value="Response&lt;br&gt;Conversation 1&lt;br&gt;&lt;b&gt;&quot;Scam&quot;&lt;/b&gt;" style="rounded=0;whiteSpace=wrap;html=1;" vertex="1" parent="1">
          <mxGeometry x="588" y="733" width="90" height="60" as="geometry" />
        </mxCell>
        <mxCell id="7VTzl1JpRAjX33c_y854-76" style="edgeStyle=orthogonalEdgeStyle;rounded=0;orthogonalLoop=1;jettySize=auto;html=1;exitX=1;exitY=0.5;exitDx=0;exitDy=0;entryX=0;entryY=0.5;entryDx=0;entryDy=0;" edge="1" parent="1" source="7VTzl1JpRAjX33c_y854-61" target="7VTzl1JpRAjX33c_y854-74">
          <mxGeometry relative="1" as="geometry" />
        </mxCell>
        <mxCell id="7VTzl1JpRAjX33c_y854-61" value="Response&lt;br&gt;Conversation 2&lt;br&gt;&lt;b&gt;&quot;Legitimate&quot;&lt;/b&gt;" style="rounded=0;whiteSpace=wrap;html=1;" vertex="1" parent="1">
          <mxGeometry x="588" y="808" width="90" height="60" as="geometry" />
        </mxCell>
        <mxCell id="7VTzl1JpRAjX33c_y854-82" style="edgeStyle=orthogonalEdgeStyle;rounded=0;orthogonalLoop=1;jettySize=auto;html=1;exitX=1;exitY=0.5;exitDx=0;exitDy=0;entryX=0;entryY=0.5;entryDx=0;entryDy=0;" edge="1" parent="1" source="7VTzl1JpRAjX33c_y854-68" target="7VTzl1JpRAjX33c_y854-81">
          <mxGeometry relative="1" as="geometry" />
        </mxCell>
        <mxCell id="7VTzl1JpRAjX33c_y854-68" value="Conversations To Insert" style="rounded=0;whiteSpace=wrap;html=1;" vertex="1" parent="1">
          <mxGeometry x="724" y="460" width="120" height="60" as="geometry" />
        </mxCell>
        <mxCell id="7VTzl1JpRAjX33c_y854-83" style="edgeStyle=orthogonalEdgeStyle;rounded=0;orthogonalLoop=1;jettySize=auto;html=1;exitX=1;exitY=0.5;exitDx=0;exitDy=0;entryX=0;entryY=0.5;entryDx=0;entryDy=0;" edge="1" parent="1" source="7VTzl1JpRAjX33c_y854-71" target="7VTzl1JpRAjX33c_y854-81">
          <mxGeometry relative="1" as="geometry" />
        </mxCell>
        <mxCell id="7VTzl1JpRAjX33c_y854-71" value="Conversations To Insert" style="rounded=0;whiteSpace=wrap;html=1;" vertex="1" parent="1">
          <mxGeometry x="724" y="620" width="120" height="60" as="geometry" />
        </mxCell>
        <mxCell id="7VTzl1JpRAjX33c_y854-84" style="edgeStyle=orthogonalEdgeStyle;rounded=0;orthogonalLoop=1;jettySize=auto;html=1;exitX=1;exitY=0.5;exitDx=0;exitDy=0;entryX=0;entryY=0.5;entryDx=0;entryDy=0;" edge="1" parent="1" source="7VTzl1JpRAjX33c_y854-74" target="7VTzl1JpRAjX33c_y854-81">
          <mxGeometry relative="1" as="geometry" />
        </mxCell>
        <mxCell id="7VTzl1JpRAjX33c_y854-74" value="Conversations To Insert" style="rounded=0;whiteSpace=wrap;html=1;" vertex="1" parent="1">
          <mxGeometry x="724" y="768" width="120" height="60" as="geometry" />
        </mxCell>
        <mxCell id="7VTzl1JpRAjX33c_y854-77" value="DATABASE" style="shape=cylinder3;whiteSpace=wrap;html=1;boundedLbl=1;backgroundOutline=1;size=15;" vertex="1" parent="1">
          <mxGeometry x="930" y="710" width="90" height="90" as="geometry" />
        </mxCell>
        <mxCell id="7VTzl1JpRAjX33c_y854-85" style="edgeStyle=orthogonalEdgeStyle;rounded=0;orthogonalLoop=1;jettySize=auto;html=1;exitX=1;exitY=0.5;exitDx=0;exitDy=0;entryX=0;entryY=0.5;entryDx=0;entryDy=0;entryPerimeter=0;" edge="1" parent="1" source="7VTzl1JpRAjX33c_y854-81" target="7VTzl1JpRAjX33c_y854-77">
          <mxGeometry relative="1" as="geometry" />
        </mxCell>
        <mxCell id="7VTzl1JpRAjX33c_y854-81" value="Labelling" style="rounded=0;whiteSpace=wrap;html=1;" vertex="1" parent="1">
          <mxGeometry x="910" y="620" width="120" height="60" as="geometry" />
        </mxCell>
      </root>
    </mxGraphModel>
  </diagram>
</mxfile>
